<?xml version="1.0" encoding="UTF-8"?><svg id="Logo_1" xmlns="http://www.w3.org/2000/svg" viewBox="0 0 972.28 639.28"><defs><style>.cls-1{fill:#fff;}.cls-1,.cls-2,.cls-3,.cls-4,.cls-5,.cls-6{stroke:#fff;stroke-width:10px;}.cls-1,.cls-3,.cls-4,.cls-5,.cls-6{stroke-miterlimit:10;}.cls-2{stroke-linejoin:round;}.cls-2,.cls-3{stroke-linecap:round;}.cls-2,.cls-3,.cls-4{fill:none;}.cls-5{fill:#2a3042;}</style></defs><g id="_Your_Text_Here_-7"><g><g><line class="cls-2" x1="548.26" y1="465.8" x2="553.28" y2="474.19"/><line class="cls-2" x1="499.66" y1="465.81" x2="494.64" y2="474.19"/><g><path class="cls-3" d="M546.95,454.38c-.42-1.4-.67-2.89-.73-4.44-.34-8.9,5.86-16.42,13.85-16.8,7.99-.38,14.74,6.52,15.09,15.42,.34,8.9-5.86,16.42-13.85,16.8-.21,0-.42,.01-.64,.01-.29,0-.58,0-.87-.03"/><line class="cls-3" x1="492.19" y1="464.84" x2="559.92" y2="465.33"/><path class="cls-3" d="M505.04,453.88c.42-1.4,.67-2.89,.73-4.44,.34-8.9-5.86-16.42-13.85-16.8-7.99-.38-14.74,6.52-15.09,15.42-.34,8.9,5.86,16.42,13.85,16.8,.21,0,.42,.01,.64,.01,.29,0,.58,0,.87-.03"/></g><line class="cls-2" x1="509.71" y1="442.04" x2="542.35" y2="442.04"/><path class="cls-2" d="M490.14,426.78v-5.94c0-8.71,6.4-15.83,14.22-15.83h41.47c7.82,0,14.22,7.12,14.22,15.83v5.94"/></g><g><line class="cls-4" x1="424.3" y1="466.17" x2="424.3" y2="479.45"/><line class="cls-4" x1="362.2" y1="466.17" x2="362.2" y2="479.45"/><line class="cls-4" x1="352.41" y1="436.08" x2="433.3" y2="436.08"/><line class="cls-4" x1="382.43" y1="451.69" x2="405.76" y2="451.69"/><line class="cls-4" x1="382.43" y1="421.27" x2="405.76" y2="421.27"/><line class="cls-4" x1="382.43" y1="391.6" x2="405.76" y2="391.6"/><line class="cls-4" x1="352.87" y1="405.65" x2="433.76" y2="405.65"/><rect class="cls-4" x="351.32" y="377.54" width="84" height="87.46"/></g><path class="cls-4" d="M542.37,289.82c-1.96,5.15-6.81,8.79-12.48,8.79s-10.52-3.64-12.48-8.79h24.96Z"/><polygon class="cls-4" points="555.65 289.67 555.64 289.68 503.87 289.68 503.87 289.67 516.81 266.46 542.7 266.46 555.65 289.67"/><line class="cls-5" x1="428.69" y1="158.47" x2="656.33" y2="320.31"/><line class="cls-5" x1="304.38" y1="325.82" x2="301.59" y2="474.9"/><line class="cls-5" x1="529.24" y1="228.63" x2="528.83" y2="266.22"/><line class="cls-5" x1="604.42" y1="281.23" x2="604.29" y2="476.82"/><line class="cls-5" x1="455.38" y1="177.82" x2="457.12" y2="481.23"/><line class="cls-6" x1="273.88" y1="479.73" x2="728.38" y2="479.82"/><line class="cls-5" x1="456.38" y1="235.82" x2="274.89" y2="340.26"/><g><g><polygon class="cls-5" points="670.33 428.66 665.86 433.45 668.13 434.42 670.33 428.66"/><polygon class="cls-5" points="660.31 439.62 664.77 444.41 662.51 445.38 660.31 439.62"/><polygon class="cls-1" points="665.68 417.42 658.83 475.82 673.49 475.82 665.68 417.42"/></g><polygon class="cls-4" points="629.12 452.59 663.57 358.41 701.96 453.82 629.12 452.59"/></g></g></g></svg>